<svg id="Layer_1" data-name="Layer 1" xmlns="http://www.w3.org/2000/svg" viewBox="0 0 662 404"><defs><style>.cls-1{fill:#333;}.cls-2{fill:#666;}.cls-3,.cls-6{fill:#ccc;}.cls-4,.cls-5{fill:none;}.cls-5{stroke:#fff;stroke-miterlimit:10;stroke-width:2px;}.cls-6{font-size:18px;font-family:Roboto-Bold, Roboto;font-weight:700;}.cls-7{letter-spacing:0.01em;}.cls-8{letter-spacing:0.01em;}.cls-9{letter-spacing:0.01em;}.cls-10{letter-spacing:-0.03em;}.cls-11{letter-spacing:-0.02em;}</style></defs><title>pyramd-salespeople</title><polyline class="cls-1" points="348.31 179.93 163.98 288.33 352.34 395.72 540.02 288.33 348.31 179.93"/><polygon class="cls-2" points="345.49 65.14 345.14 284.93 469.54 214.29 345.49 65.14"/><polyline class="cls-3" points="345.59 64.9 220.82 214.65 345.14 284.93"/><polyline class="cls-4" points="343.45 96.76 116.09 230.47 348.42 362.93 579.91 230.47 343.45 96.76"/><polyline class="cls-5" points="410.73 91.09 486.65 34 520 34"/><polyline class="cls-5" points="447.11 252.38 524.74 311 553 311"/><polyline class="cls-5" points="277.05 92.77 199.93 34 168 34"/><text class="cls-6" transform="translate(541 28.93)"><tspan class="cls-7">M</tspan><tspan x="15.93" y="0">AKE SALES </tspan><tspan x="0" y="21.6">REFERRALS</tspan></text><text class="cls-6" transform="translate(10.67 31.38)">JOIN A BUSINESS <tspan x="0" y="21.6">N</tspan><tspan class="cls-8" x="12.71" y="21.6">E</tspan><tspan class="cls-9" x="23.01" y="21.6">T</tspan><tspan x="34.28" y="21.6">WORK</tspan></text><text class="cls-6" transform="translate(562.34 308.65)">G<tspan class="cls-8" x="12.26" y="0">E</tspan><tspan class="cls-10" x="22.56" y="0">T</tspan><tspan x="33.17" y="0" xml:space="preserve"> CASH </tspan><tspan x="0" y="21.6">RE</tspan><tspan class="cls-11" x="21.61" y="21.6">W</tspan><tspan x="36.98" y="21.6">ARDS</tspan></text></svg>